<?xml version="1.0" encoding="UTF-8" standalone="no"?>
<!DOCTYPE svg PUBLIC "-//W3C//DTD SVG 1.1//EN"
 "http://www.w3.org/Graphics/SVG/1.1/DTD/svg11.dtd">
<!-- Generated by graphviz version 6.0.2 (20221011.1828)
 -->
<!-- Title: G Pages: 1 -->
<svg width="224pt" height="104pt"
 viewBox="0.00 0.00 224.00 104.00" xmlns="http://www.w3.org/2000/svg" xmlns:xlink="http://www.w3.org/1999/xlink">
<g id="graph0" class="graph" transform="scale(1 1) rotate(0) translate(4 100)">
<title>G</title>
<polygon fill="#9aabba" stroke="none" points="-4,4 -4,-100 220,-100 220,4 -4,4"/>
<!-- above_node -->
<!-- node0_0 -->
<g id="node2" class="node">
<title>node0_0</title>
<path fill="#88cdbe" stroke="#88cdbe" d="M88.83,-44.5C88.83,-44.5 127.17,-44.5 127.17,-44.5 128.33,-44.5 129.5,-45.67 129.5,-46.83 129.5,-46.83 129.5,-49.17 129.5,-49.17 129.5,-50.33 128.33,-51.5 127.17,-51.5 127.17,-51.5 88.83,-51.5 88.83,-51.5 87.67,-51.5 86.5,-50.33 86.5,-49.17 86.5,-49.17 86.5,-46.83 86.5,-46.83 86.5,-45.67 87.67,-44.5 88.83,-44.5"/>
<text text-anchor="middle" x="108" y="-47.1" font-family="Times New Roman,serif" font-size="3.00">UNITIALIZED_STRING</text>
</g>
<!-- above_node&#45;&gt;node0_0 -->
<!-- below_node -->
<!-- below_node&#45;&gt;node0_0 -->
</g>
</svg>
