<?xml version="1.0" encoding="UTF-8" standalone="no"?>
<!DOCTYPE svg PUBLIC "-//W3C//DTD SVG 1.1//EN"
 "http://www.w3.org/Graphics/SVG/1.1/DTD/svg11.dtd">
<!-- Generated by graphviz version 6.0.2 (20221011.1828)
 -->
<!-- Title: G Pages: 1 -->
<svg width="264pt" height="368pt"
 viewBox="0.00 0.00 264.00 368.00" xmlns="http://www.w3.org/2000/svg" xmlns:xlink="http://www.w3.org/1999/xlink">
<g id="graph0" class="graph" transform="scale(1 1) rotate(0) translate(4 364)">
<title>G</title>
<polygon fill="#9aabba" stroke="none" points="-4,4 -4,-364 260,-364 260,4 -4,4"/>
<!-- above_node -->
<!-- node0_0 -->
<g id="node2" class="node">
<title>node0_0</title>
<path fill="#8bbfec" stroke="#8bbfec" d="M93.33,-308.5C93.33,-308.5 131.67,-308.5 131.67,-308.5 132.83,-308.5 134,-309.67 134,-310.83 134,-310.83 134,-313.17 134,-313.17 134,-314.33 132.83,-315.5 131.67,-315.5 131.67,-315.5 93.33,-315.5 93.33,-315.5 92.17,-315.5 91,-314.33 91,-313.17 91,-313.17 91,-310.83 91,-310.83 91,-309.67 92.17,-308.5 93.33,-308.5"/>
<text text-anchor="middle" x="112.5" y="-311.1" font-family="Times New Roman,serif" font-size="3.00">consider himself a human being</text>
</g>
<!-- above_node&#45;&gt;node0_0 -->
<!-- node1_0 -->
<g id="node3" class="node">
<title>node1_0</title>
<path fill="#8bbfec" stroke="#8bbfec" d="M63.33,-264.5C63.33,-264.5 101.67,-264.5 101.67,-264.5 102.83,-264.5 104,-265.67 104,-266.83 104,-266.83 104,-269.17 104,-269.17 104,-270.33 102.83,-271.5 101.67,-271.5 101.67,-271.5 63.33,-271.5 63.33,-271.5 62.17,-271.5 61,-270.33 61,-269.17 61,-269.17 61,-266.83 61,-266.83 61,-265.67 62.17,-264.5 63.33,-264.5"/>
<text text-anchor="middle" x="82.5" y="-267.1" font-family="Times New Roman,serif" font-size="3.00">get eaten by people</text>
</g>
<!-- node0_0&#45;&gt;node1_0 -->
<g id="edge1" class="edge">
<title>node0_0&#45;&gt;node1_0</title>
<path fill="none" stroke="black" stroke-width="0.3" d="M110.53,-308.24C105.62,-301.36 92.74,-283.34 86.29,-274.31"/>
<polygon fill="black" stroke="black" stroke-width="0.3" points="87.11,-273.65 84.51,-271.82 85.4,-274.87 87.11,-273.65"/>
</g>
<!-- node1_1 -->
<g id="node4" class="node">
<title>node1_1</title>
<path fill="#8bbfec" stroke="#8bbfec" d="M124.33,-264.5C124.33,-264.5 162.67,-264.5 162.67,-264.5 163.83,-264.5 165,-265.67 165,-266.83 165,-266.83 165,-269.17 165,-269.17 165,-270.33 163.83,-271.5 162.67,-271.5 162.67,-271.5 124.33,-271.5 124.33,-271.5 123.17,-271.5 122,-270.33 122,-269.17 122,-269.17 122,-266.83 122,-266.83 122,-265.67 123.17,-264.5 124.33,-264.5"/>
<text text-anchor="middle" x="143.5" y="-267.1" font-family="Times New Roman,serif" font-size="3.00">teach at mipt</text>
</g>
<!-- node0_0&#45;&gt;node1_1 -->
<g id="edge2" class="edge">
<title>node0_0&#45;&gt;node1_1</title>
<path fill="none" stroke="black" stroke-width="0.3" d="M114.53,-308.24C119.61,-301.36 132.92,-283.34 139.58,-274.31"/>
<polygon fill="black" stroke="black" stroke-width="0.3" points="140.48,-274.86 141.42,-271.82 138.79,-273.61 140.48,-274.86"/>
</g>
<!-- node2_0 -->
<g id="node5" class="node">
<title>node2_0</title>
<path fill="#88cdbe" stroke="#88cdbe" d="M2.33,-220.5C2.33,-220.5 40.67,-220.5 40.67,-220.5 41.83,-220.5 43,-221.67 43,-222.83 43,-222.83 43,-225.17 43,-225.17 43,-226.33 41.83,-227.5 40.67,-227.5 40.67,-227.5 2.33,-227.5 2.33,-227.5 1.17,-227.5 0,-226.33 0,-225.17 0,-225.17 0,-222.83 0,-222.83 0,-221.67 1.17,-220.5 2.33,-220.5"/>
<text text-anchor="middle" x="21.5" y="-223.1" font-family="Times New Roman,serif" font-size="3.00">poltorashka</text>
</g>
<!-- node1_0&#45;&gt;node2_0 -->
<g id="edge3" class="edge">
<title>node1_0&#45;&gt;node2_0</title>
<path fill="none" stroke="black" stroke-width="0.3" d="M78.87,-264.5C68.85,-257.6 40.75,-238.25 27.97,-229.45"/>
<polygon fill="black" stroke="black" stroke-width="0.3" points="28.41,-228.49 25.35,-227.65 27.22,-230.22 28.41,-228.49"/>
</g>
<!-- node2_1 -->
<g id="node6" class="node">
<title>node2_1</title>
<path fill="#88cdbe" stroke="#88cdbe" d="M63.33,-220.5C63.33,-220.5 101.67,-220.5 101.67,-220.5 102.83,-220.5 104,-221.67 104,-222.83 104,-222.83 104,-225.17 104,-225.17 104,-226.33 102.83,-227.5 101.67,-227.5 101.67,-227.5 63.33,-227.5 63.33,-227.5 62.17,-227.5 61,-226.33 61,-225.17 61,-225.17 61,-222.83 61,-222.83 61,-221.67 62.17,-220.5 63.33,-220.5"/>
<text text-anchor="middle" x="82.5" y="-223.1" font-family="Times New Roman,serif" font-size="3.00">shaurma</text>
</g>
<!-- node1_0&#45;&gt;node2_1 -->
<g id="edge4" class="edge">
<title>node1_0&#45;&gt;node2_1</title>
<path fill="none" stroke="black" stroke-width="0.3" d="M82.5,-264.24C82.5,-257.6 82.5,-240.57 82.5,-231.28"/>
<polygon fill="black" stroke="black" stroke-width="0.3" points="83.55,-230.82 82.5,-227.82 81.45,-230.82 83.55,-230.82"/>
</g>
<!-- node2_2 -->
<g id="node7" class="node">
<title>node2_2</title>
<path fill="#88cdbe" stroke="#88cdbe" d="M124.33,-220.5C124.33,-220.5 162.67,-220.5 162.67,-220.5 163.83,-220.5 165,-221.67 165,-222.83 165,-222.83 165,-225.17 165,-225.17 165,-226.33 163.83,-227.5 162.67,-227.5 162.67,-227.5 124.33,-227.5 124.33,-227.5 123.17,-227.5 122,-226.33 122,-225.17 122,-225.17 122,-222.83 122,-222.83 122,-221.67 123.17,-220.5 124.33,-220.5"/>
<text text-anchor="middle" x="143.5" y="-223.1" font-family="Times New Roman,serif" font-size="3.00">vlad z</text>
</g>
<!-- node1_1&#45;&gt;node2_2 -->
<g id="edge5" class="edge">
<title>node1_1&#45;&gt;node2_2</title>
<path fill="none" stroke="black" stroke-width="0.3" d="M143.5,-264.24C143.5,-257.6 143.5,-240.57 143.5,-231.28"/>
<polygon fill="black" stroke="black" stroke-width="0.3" points="144.55,-230.82 143.5,-227.82 142.45,-230.82 144.55,-230.82"/>
</g>
<!-- node2_3 -->
<g id="node8" class="node">
<title>node2_3</title>
<path fill="#8bbfec" stroke="#8bbfec" d="M185.33,-220.5C185.33,-220.5 223.67,-220.5 223.67,-220.5 224.83,-220.5 226,-221.67 226,-222.83 226,-222.83 226,-225.17 226,-225.17 226,-226.33 224.83,-227.5 223.67,-227.5 223.67,-227.5 185.33,-227.5 185.33,-227.5 184.17,-227.5 183,-226.33 183,-225.17 183,-225.17 183,-222.83 183,-222.83 183,-221.67 184.17,-220.5 185.33,-220.5"/>
<text text-anchor="middle" x="204.5" y="-223.1" font-family="Times New Roman,serif" font-size="3.00">teach computer science</text>
</g>
<!-- node1_1&#45;&gt;node2_3 -->
<g id="edge6" class="edge">
<title>node1_1&#45;&gt;node2_3</title>
<path fill="none" stroke="black" stroke-width="0.3" d="M147.13,-264.5C157.15,-257.6 185.25,-238.25 198.03,-229.45"/>
<polygon fill="black" stroke="black" stroke-width="0.3" points="198.78,-230.22 200.65,-227.65 197.59,-228.49 198.78,-230.22"/>
</g>
<!-- node3_0 -->
<g id="node9" class="node">
<title>node3_0</title>
<path fill="#8bbfec" stroke="#8bbfec" d="M154.33,-176.5C154.33,-176.5 192.67,-176.5 192.67,-176.5 193.83,-176.5 195,-177.67 195,-178.83 195,-178.83 195,-181.17 195,-181.17 195,-182.33 193.83,-183.5 192.67,-183.5 192.67,-183.5 154.33,-183.5 154.33,-183.5 153.17,-183.5 152,-182.33 152,-181.17 152,-181.17 152,-178.83 152,-178.83 152,-177.67 153.17,-176.5 154.33,-176.5"/>
<text text-anchor="middle" x="173.5" y="-179.1" font-family="Times New Roman,serif" font-size="3.00">sing songs</text>
</g>
<!-- node2_3&#45;&gt;node3_0 -->
<g id="edge7" class="edge">
<title>node2_3&#45;&gt;node3_0</title>
<path fill="none" stroke="black" stroke-width="0.3" d="M202.47,-220.24C197.39,-213.36 184.08,-195.34 177.42,-186.31"/>
<polygon fill="black" stroke="black" stroke-width="0.3" points="178.21,-185.61 175.58,-183.82 176.52,-186.86 178.21,-185.61"/>
</g>
<!-- node3_1 -->
<g id="node10" class="node">
<title>node3_1</title>
<path fill="#88cdbe" stroke="#88cdbe" d="M215.33,-176.5C215.33,-176.5 253.67,-176.5 253.67,-176.5 254.83,-176.5 256,-177.67 256,-178.83 256,-178.83 256,-181.17 256,-181.17 256,-182.33 254.83,-183.5 253.67,-183.5 253.67,-183.5 215.33,-183.5 215.33,-183.5 214.17,-183.5 213,-182.33 213,-181.17 213,-181.17 213,-178.83 213,-178.83 213,-177.67 214.17,-176.5 215.33,-176.5"/>
<text text-anchor="middle" x="234.5" y="-179.1" font-family="Times New Roman,serif" font-size="3.00">ded</text>
</g>
<!-- node2_3&#45;&gt;node3_1 -->
<g id="edge8" class="edge">
<title>node2_3&#45;&gt;node3_1</title>
<path fill="none" stroke="black" stroke-width="0.3" d="M206.47,-220.24C211.38,-213.36 224.26,-195.34 230.71,-186.31"/>
<polygon fill="black" stroke="black" stroke-width="0.3" points="231.6,-186.87 232.49,-183.82 229.89,-185.65 231.6,-186.87"/>
</g>
<!-- node4_0 -->
<g id="node11" class="node">
<title>node4_0</title>
<path fill="#8bbfec" stroke="#8bbfec" d="M124.33,-132.5C124.33,-132.5 162.67,-132.5 162.67,-132.5 163.83,-132.5 165,-133.67 165,-134.83 165,-134.83 165,-137.17 165,-137.17 165,-138.33 163.83,-139.5 162.67,-139.5 162.67,-139.5 124.33,-139.5 124.33,-139.5 123.17,-139.5 122,-138.33 122,-137.17 122,-137.17 122,-134.83 122,-134.83 122,-133.67 123.17,-132.5 124.33,-132.5"/>
<text text-anchor="middle" x="143.5" y="-135.1" font-family="Times New Roman,serif" font-size="3.00">teach seminars</text>
</g>
<!-- node3_0&#45;&gt;node4_0 -->
<g id="edge9" class="edge">
<title>node3_0&#45;&gt;node4_0</title>
<path fill="none" stroke="black" stroke-width="0.3" d="M171.53,-176.24C166.62,-169.36 153.74,-151.34 147.29,-142.31"/>
<polygon fill="black" stroke="black" stroke-width="0.3" points="148.11,-141.65 145.51,-139.82 146.4,-142.87 148.11,-141.65"/>
</g>
<!-- node4_1 -->
<g id="node12" class="node">
<title>node4_1</title>
<path fill="#88cdbe" stroke="#88cdbe" d="M185.33,-132.5C185.33,-132.5 223.67,-132.5 223.67,-132.5 224.83,-132.5 226,-133.67 226,-134.83 226,-134.83 226,-137.17 226,-137.17 226,-138.33 224.83,-139.5 223.67,-139.5 223.67,-139.5 185.33,-139.5 185.33,-139.5 184.17,-139.5 183,-138.33 183,-137.17 183,-137.17 183,-134.83 183,-134.83 183,-133.67 184.17,-132.5 185.33,-132.5"/>
<text text-anchor="middle" x="204.5" y="-135.1" font-family="Times New Roman,serif" font-size="3.00">ovchinkin</text>
</g>
<!-- node3_0&#45;&gt;node4_1 -->
<g id="edge10" class="edge">
<title>node3_0&#45;&gt;node4_1</title>
<path fill="none" stroke="black" stroke-width="0.3" d="M175.53,-176.24C180.61,-169.36 193.92,-151.34 200.58,-142.31"/>
<polygon fill="black" stroke="black" stroke-width="0.3" points="201.48,-142.86 202.42,-139.82 199.79,-141.61 201.48,-142.86"/>
</g>
<!-- node5_0 -->
<g id="node13" class="node">
<title>node5_0</title>
<path fill="#88cdbe" stroke="#88cdbe" d="M94.33,-88.5C94.33,-88.5 132.67,-88.5 132.67,-88.5 133.83,-88.5 135,-89.67 135,-90.83 135,-90.83 135,-93.17 135,-93.17 135,-94.33 133.83,-95.5 132.67,-95.5 132.67,-95.5 94.33,-95.5 94.33,-95.5 93.17,-95.5 92,-94.33 92,-93.17 92,-93.17 92,-90.83 92,-90.83 92,-89.67 93.17,-88.5 94.33,-88.5"/>
<text text-anchor="middle" x="113.5" y="-91.1" font-family="Times New Roman,serif" font-size="3.00">shtepin</text>
</g>
<!-- node4_0&#45;&gt;node5_0 -->
<g id="edge11" class="edge">
<title>node4_0&#45;&gt;node5_0</title>
<path fill="none" stroke="black" stroke-width="0.3" d="M141.53,-132.24C136.62,-125.36 123.74,-107.34 117.29,-98.31"/>
<polygon fill="black" stroke="black" stroke-width="0.3" points="118.11,-97.65 115.51,-95.82 116.4,-98.87 118.11,-97.65"/>
</g>
<!-- node5_1 -->
<g id="node14" class="node">
<title>node5_1</title>
<path fill="#8bbfec" stroke="#8bbfec" d="M155.33,-88.5C155.33,-88.5 193.67,-88.5 193.67,-88.5 194.83,-88.5 196,-89.67 196,-90.83 196,-90.83 196,-93.17 196,-93.17 196,-94.33 194.83,-95.5 193.67,-95.5 193.67,-95.5 155.33,-95.5 155.33,-95.5 154.17,-95.5 153,-94.33 153,-93.17 153,-93.17 153,-90.83 153,-90.83 153,-89.67 154.17,-88.5 155.33,-88.5"/>
<text text-anchor="middle" x="174.5" y="-91.1" font-family="Times New Roman,serif" font-size="3.00">teach calculus</text>
</g>
<!-- node4_0&#45;&gt;node5_1 -->
<g id="edge12" class="edge">
<title>node4_0&#45;&gt;node5_1</title>
<path fill="none" stroke="black" stroke-width="0.3" d="M145.53,-132.24C150.61,-125.36 163.92,-107.34 170.58,-98.31"/>
<polygon fill="black" stroke="black" stroke-width="0.3" points="171.48,-98.86 172.42,-95.82 169.79,-97.61 171.48,-98.86"/>
</g>
<!-- node6_0 -->
<g id="node15" class="node">
<title>node6_0</title>
<path fill="#88cdbe" stroke="#88cdbe" d="M124.33,-44.5C124.33,-44.5 162.67,-44.5 162.67,-44.5 163.83,-44.5 165,-45.67 165,-46.83 165,-46.83 165,-49.17 165,-49.17 165,-50.33 163.83,-51.5 162.67,-51.5 162.67,-51.5 124.33,-51.5 124.33,-51.5 123.17,-51.5 122,-50.33 122,-49.17 122,-49.17 122,-46.83 122,-46.83 122,-45.67 123.17,-44.5 124.33,-44.5"/>
<text text-anchor="middle" x="143.5" y="-47.1" font-family="Times New Roman,serif" font-size="3.00">bogdanov</text>
</g>
<!-- node5_1&#45;&gt;node6_0 -->
<g id="edge13" class="edge">
<title>node5_1&#45;&gt;node6_0</title>
<path fill="none" stroke="black" stroke-width="0.3" d="M172.47,-88.24C167.39,-81.36 154.08,-63.34 147.42,-54.31"/>
<polygon fill="black" stroke="black" stroke-width="0.3" points="148.21,-53.61 145.58,-51.82 146.52,-54.86 148.21,-53.61"/>
</g>
<!-- node6_1 -->
<g id="node16" class="node">
<title>node6_1</title>
<path fill="#88cdbe" stroke="#88cdbe" d="M185.33,-44.5C185.33,-44.5 223.67,-44.5 223.67,-44.5 224.83,-44.5 226,-45.67 226,-46.83 226,-46.83 226,-49.17 226,-49.17 226,-50.33 224.83,-51.5 223.67,-51.5 223.67,-51.5 185.33,-51.5 185.33,-51.5 184.17,-51.5 183,-50.33 183,-49.17 183,-49.17 183,-46.83 183,-46.83 183,-45.67 184.17,-44.5 185.33,-44.5"/>
<text text-anchor="middle" x="204.5" y="-47.1" font-family="Times New Roman,serif" font-size="3.00">redkozubov</text>
</g>
<!-- node5_1&#45;&gt;node6_1 -->
<g id="edge14" class="edge">
<title>node5_1&#45;&gt;node6_1</title>
<path fill="none" stroke="black" stroke-width="0.3" d="M176.47,-88.24C181.38,-81.36 194.26,-63.34 200.71,-54.31"/>
<polygon fill="black" stroke="black" stroke-width="0.3" points="201.6,-54.87 202.49,-51.82 199.89,-53.65 201.6,-54.87"/>
</g>
<!-- below_node -->
<!-- below_node&#45;&gt;node6_0 -->
</g>
</svg>
