<?xml version="1.0" encoding="UTF-8" standalone="no"?>
<!DOCTYPE svg PUBLIC "-//W3C//DTD SVG 1.1//EN"
 "http://www.w3.org/Graphics/SVG/1.1/DTD/svg11.dtd">
<!-- Generated by graphviz version 6.0.2 (20221011.1828)
 -->
<!-- Title: G Pages: 1 -->
<svg width="254pt" height="324pt"
 viewBox="0.00 0.00 254.00 324.00" xmlns="http://www.w3.org/2000/svg" xmlns:xlink="http://www.w3.org/1999/xlink">
<g id="graph0" class="graph" transform="scale(1 1) rotate(0) translate(4 320)">
<title>G</title>
<polygon fill="#9aabba" stroke="none" points="-4,4 -4,-320 250,-320 250,4 -4,4"/>
<!-- above_node -->
<!-- node0_0 -->
<g id="node2" class="node">
<title>node0_0</title>
<path fill="#8bbfec" stroke="#8bbfec" d="M118.83,-264.5C118.83,-264.5 157.17,-264.5 157.17,-264.5 158.33,-264.5 159.5,-265.67 159.5,-266.83 159.5,-266.83 159.5,-269.17 159.5,-269.17 159.5,-270.33 158.33,-271.5 157.17,-271.5 157.17,-271.5 118.83,-271.5 118.83,-271.5 117.67,-271.5 116.5,-270.33 116.5,-269.17 116.5,-269.17 116.5,-266.83 116.5,-266.83 116.5,-265.67 117.67,-264.5 118.83,-264.5"/>
<text text-anchor="middle" x="138" y="-267.1" font-family="Times New Roman,serif" font-size="3.00">consider himself a human being</text>
</g>
<!-- above_node&#45;&gt;node0_0 -->
<!-- node1_0 -->
<g id="node3" class="node">
<title>node1_0</title>
<path fill="#88cdbe" stroke="#88cdbe" d="M88.83,-220.5C88.83,-220.5 127.17,-220.5 127.17,-220.5 128.33,-220.5 129.5,-221.67 129.5,-222.83 129.5,-222.83 129.5,-225.17 129.5,-225.17 129.5,-226.33 128.33,-227.5 127.17,-227.5 127.17,-227.5 88.83,-227.5 88.83,-227.5 87.67,-227.5 86.5,-226.33 86.5,-225.17 86.5,-225.17 86.5,-222.83 86.5,-222.83 86.5,-221.67 87.67,-220.5 88.83,-220.5"/>
<text text-anchor="middle" x="108" y="-223.1" font-family="Times New Roman,serif" font-size="3.00">poltorashka</text>
</g>
<!-- node0_0&#45;&gt;node1_0 -->
<g id="edge1" class="edge">
<title>node0_0&#45;&gt;node1_0</title>
<path fill="none" stroke="black" stroke-width="0.3" d="M136.03,-264.24C131.12,-257.36 118.24,-239.34 111.79,-230.31"/>
<polygon fill="black" stroke="black" stroke-width="0.3" points="112.61,-229.65 110.01,-227.82 110.9,-230.87 112.61,-229.65"/>
</g>
<!-- node1_1 -->
<g id="node4" class="node">
<title>node1_1</title>
<path fill="#8bbfec" stroke="#8bbfec" d="M149.83,-220.5C149.83,-220.5 188.17,-220.5 188.17,-220.5 189.33,-220.5 190.5,-221.67 190.5,-222.83 190.5,-222.83 190.5,-225.17 190.5,-225.17 190.5,-226.33 189.33,-227.5 188.17,-227.5 188.17,-227.5 149.83,-227.5 149.83,-227.5 148.67,-227.5 147.5,-226.33 147.5,-225.17 147.5,-225.17 147.5,-222.83 147.5,-222.83 147.5,-221.67 148.67,-220.5 149.83,-220.5"/>
<text text-anchor="middle" x="169" y="-223.1" font-family="Times New Roman,serif" font-size="3.00">teach computer science</text>
</g>
<!-- node0_0&#45;&gt;node1_1 -->
<g id="edge2" class="edge">
<title>node0_0&#45;&gt;node1_1</title>
<path fill="none" stroke="black" stroke-width="0.3" d="M140.03,-264.24C145.11,-257.36 158.42,-239.34 165.08,-230.31"/>
<polygon fill="black" stroke="black" stroke-width="0.3" points="165.98,-230.86 166.92,-227.82 164.29,-229.61 165.98,-230.86"/>
</g>
<!-- node2_0 -->
<g id="node5" class="node">
<title>node2_0</title>
<path fill="#8bbfec" stroke="#8bbfec" d="M118.83,-176.5C118.83,-176.5 157.17,-176.5 157.17,-176.5 158.33,-176.5 159.5,-177.67 159.5,-178.83 159.5,-178.83 159.5,-181.17 159.5,-181.17 159.5,-182.33 158.33,-183.5 157.17,-183.5 157.17,-183.5 118.83,-183.5 118.83,-183.5 117.67,-183.5 116.5,-182.33 116.5,-181.17 116.5,-181.17 116.5,-178.83 116.5,-178.83 116.5,-177.67 117.67,-176.5 118.83,-176.5"/>
<text text-anchor="middle" x="138" y="-179.1" font-family="Times New Roman,serif" font-size="3.00">sing songs</text>
</g>
<!-- node1_1&#45;&gt;node2_0 -->
<g id="edge3" class="edge">
<title>node1_1&#45;&gt;node2_0</title>
<path fill="none" stroke="black" stroke-width="0.3" d="M166.97,-220.24C161.89,-213.36 148.58,-195.34 141.92,-186.31"/>
<polygon fill="black" stroke="black" stroke-width="0.3" points="142.71,-185.61 140.08,-183.82 141.02,-186.86 142.71,-185.61"/>
</g>
<!-- node2_1 -->
<g id="node6" class="node">
<title>node2_1</title>
<path fill="#88cdbe" stroke="#88cdbe" d="M179.83,-176.5C179.83,-176.5 218.17,-176.5 218.17,-176.5 219.33,-176.5 220.5,-177.67 220.5,-178.83 220.5,-178.83 220.5,-181.17 220.5,-181.17 220.5,-182.33 219.33,-183.5 218.17,-183.5 218.17,-183.5 179.83,-183.5 179.83,-183.5 178.67,-183.5 177.5,-182.33 177.5,-181.17 177.5,-181.17 177.5,-178.83 177.5,-178.83 177.5,-177.67 178.67,-176.5 179.83,-176.5"/>
<text text-anchor="middle" x="199" y="-179.1" font-family="Times New Roman,serif" font-size="3.00">ded</text>
</g>
<!-- node1_1&#45;&gt;node2_1 -->
<g id="edge4" class="edge">
<title>node1_1&#45;&gt;node2_1</title>
<path fill="none" stroke="black" stroke-width="0.3" d="M170.97,-220.24C175.88,-213.36 188.76,-195.34 195.21,-186.31"/>
<polygon fill="black" stroke="black" stroke-width="0.3" points="196.1,-186.87 196.99,-183.82 194.39,-185.65 196.1,-186.87"/>
</g>
<!-- node3_0 -->
<g id="node7" class="node">
<title>node3_0</title>
<path fill="#8bbfec" stroke="#8bbfec" d="M88.83,-132.5C88.83,-132.5 127.17,-132.5 127.17,-132.5 128.33,-132.5 129.5,-133.67 129.5,-134.83 129.5,-134.83 129.5,-137.17 129.5,-137.17 129.5,-138.33 128.33,-139.5 127.17,-139.5 127.17,-139.5 88.83,-139.5 88.83,-139.5 87.67,-139.5 86.5,-138.33 86.5,-137.17 86.5,-137.17 86.5,-134.83 86.5,-134.83 86.5,-133.67 87.67,-132.5 88.83,-132.5"/>
<text text-anchor="middle" x="108" y="-135.1" font-family="Times New Roman,serif" font-size="3.00">teach seminars</text>
</g>
<!-- node2_0&#45;&gt;node3_0 -->
<g id="edge5" class="edge">
<title>node2_0&#45;&gt;node3_0</title>
<path fill="none" stroke="black" stroke-width="0.3" d="M136.03,-176.24C131.12,-169.36 118.24,-151.34 111.79,-142.31"/>
<polygon fill="black" stroke="black" stroke-width="0.3" points="112.61,-141.65 110.01,-139.82 110.9,-142.87 112.61,-141.65"/>
</g>
<!-- node3_1 -->
<g id="node8" class="node">
<title>node3_1</title>
<path fill="#88cdbe" stroke="#88cdbe" d="M149.83,-132.5C149.83,-132.5 188.17,-132.5 188.17,-132.5 189.33,-132.5 190.5,-133.67 190.5,-134.83 190.5,-134.83 190.5,-137.17 190.5,-137.17 190.5,-138.33 189.33,-139.5 188.17,-139.5 188.17,-139.5 149.83,-139.5 149.83,-139.5 148.67,-139.5 147.5,-138.33 147.5,-137.17 147.5,-137.17 147.5,-134.83 147.5,-134.83 147.5,-133.67 148.67,-132.5 149.83,-132.5"/>
<text text-anchor="middle" x="169" y="-135.1" font-family="Times New Roman,serif" font-size="3.00">ovchinkin</text>
</g>
<!-- node2_0&#45;&gt;node3_1 -->
<g id="edge6" class="edge">
<title>node2_0&#45;&gt;node3_1</title>
<path fill="none" stroke="black" stroke-width="0.3" d="M140.03,-176.24C145.11,-169.36 158.42,-151.34 165.08,-142.31"/>
<polygon fill="black" stroke="black" stroke-width="0.3" points="165.98,-142.86 166.92,-139.82 164.29,-141.61 165.98,-142.86"/>
</g>
<!-- node4_0 -->
<g id="node9" class="node">
<title>node4_0</title>
<path fill="#88cdbe" stroke="#88cdbe" d="M58.83,-88.5C58.83,-88.5 97.17,-88.5 97.17,-88.5 98.33,-88.5 99.5,-89.67 99.5,-90.83 99.5,-90.83 99.5,-93.17 99.5,-93.17 99.5,-94.33 98.33,-95.5 97.17,-95.5 97.17,-95.5 58.83,-95.5 58.83,-95.5 57.67,-95.5 56.5,-94.33 56.5,-93.17 56.5,-93.17 56.5,-90.83 56.5,-90.83 56.5,-89.67 57.67,-88.5 58.83,-88.5"/>
<text text-anchor="middle" x="78" y="-91.1" font-family="Times New Roman,serif" font-size="3.00">shtepin</text>
</g>
<!-- node3_0&#45;&gt;node4_0 -->
<g id="edge7" class="edge">
<title>node3_0&#45;&gt;node4_0</title>
<path fill="none" stroke="black" stroke-width="0.3" d="M106.03,-132.24C101.12,-125.36 88.24,-107.34 81.79,-98.31"/>
<polygon fill="black" stroke="black" stroke-width="0.3" points="82.61,-97.65 80.01,-95.82 80.9,-98.87 82.61,-97.65"/>
</g>
<!-- node4_1 -->
<g id="node10" class="node">
<title>node4_1</title>
<path fill="#8bbfec" stroke="#8bbfec" d="M119.83,-88.5C119.83,-88.5 158.17,-88.5 158.17,-88.5 159.33,-88.5 160.5,-89.67 160.5,-90.83 160.5,-90.83 160.5,-93.17 160.5,-93.17 160.5,-94.33 159.33,-95.5 158.17,-95.5 158.17,-95.5 119.83,-95.5 119.83,-95.5 118.67,-95.5 117.5,-94.33 117.5,-93.17 117.5,-93.17 117.5,-90.83 117.5,-90.83 117.5,-89.67 118.67,-88.5 119.83,-88.5"/>
<text text-anchor="middle" x="139" y="-91.1" font-family="Times New Roman,serif" font-size="3.00">teach calculus</text>
</g>
<!-- node3_0&#45;&gt;node4_1 -->
<g id="edge8" class="edge">
<title>node3_0&#45;&gt;node4_1</title>
<path fill="none" stroke="black" stroke-width="0.3" d="M110.03,-132.24C115.11,-125.36 128.42,-107.34 135.08,-98.31"/>
<polygon fill="black" stroke="black" stroke-width="0.3" points="135.98,-98.86 136.92,-95.82 134.29,-97.61 135.98,-98.86"/>
</g>
<!-- node5_0 -->
<g id="node11" class="node">
<title>node5_0</title>
<path fill="#88cdbe" stroke="#88cdbe" d="M88.83,-44.5C88.83,-44.5 127.17,-44.5 127.17,-44.5 128.33,-44.5 129.5,-45.67 129.5,-46.83 129.5,-46.83 129.5,-49.17 129.5,-49.17 129.5,-50.33 128.33,-51.5 127.17,-51.5 127.17,-51.5 88.83,-51.5 88.83,-51.5 87.67,-51.5 86.5,-50.33 86.5,-49.17 86.5,-49.17 86.5,-46.83 86.5,-46.83 86.5,-45.67 87.67,-44.5 88.83,-44.5"/>
<text text-anchor="middle" x="108" y="-47.1" font-family="Times New Roman,serif" font-size="3.00">bogdanov</text>
</g>
<!-- node4_1&#45;&gt;node5_0 -->
<g id="edge9" class="edge">
<title>node4_1&#45;&gt;node5_0</title>
<path fill="none" stroke="black" stroke-width="0.3" d="M136.97,-88.24C131.89,-81.36 118.58,-63.34 111.92,-54.31"/>
<polygon fill="black" stroke="black" stroke-width="0.3" points="112.71,-53.61 110.08,-51.82 111.02,-54.86 112.71,-53.61"/>
</g>
<!-- node5_1 -->
<g id="node12" class="node">
<title>node5_1</title>
<path fill="#88cdbe" stroke="#88cdbe" d="M149.83,-44.5C149.83,-44.5 188.17,-44.5 188.17,-44.5 189.33,-44.5 190.5,-45.67 190.5,-46.83 190.5,-46.83 190.5,-49.17 190.5,-49.17 190.5,-50.33 189.33,-51.5 188.17,-51.5 188.17,-51.5 149.83,-51.5 149.83,-51.5 148.67,-51.5 147.5,-50.33 147.5,-49.17 147.5,-49.17 147.5,-46.83 147.5,-46.83 147.5,-45.67 148.67,-44.5 149.83,-44.5"/>
<text text-anchor="middle" x="169" y="-47.1" font-family="Times New Roman,serif" font-size="3.00">redkozubov</text>
</g>
<!-- node4_1&#45;&gt;node5_1 -->
<g id="edge10" class="edge">
<title>node4_1&#45;&gt;node5_1</title>
<path fill="none" stroke="black" stroke-width="0.3" d="M140.97,-88.24C145.88,-81.36 158.76,-63.34 165.21,-54.31"/>
<polygon fill="black" stroke="black" stroke-width="0.3" points="166.1,-54.87 166.99,-51.82 164.39,-53.65 166.1,-54.87"/>
</g>
<!-- below_node -->
<!-- below_node&#45;&gt;node5_0 -->
</g>
</svg>
